<?xml version="1.0" encoding="utf-8"?>
<!-- Generator: Adobe Illustrator 16.0.0, SVG Export Plug-In . SVG Version: 6.00 Build 0)  -->
<!DOCTYPE svg PUBLIC "-//W3C//DTD SVG 1.1//EN" "http://www.w3.org/Graphics/SVG/1.1/DTD/svg11.dtd">
<svg version="1.1" id="Layer_1" xmlns="http://www.w3.org/2000/svg" xmlns:xlink="http://www.w3.org/1999/xlink" x="0px" y="0px"
	 width="952px" height="340.14px" viewBox="0 0 952 340.14" enable-background="new 0 0 952 340.14" xml:space="preserve">
<g>
	<path fill="#231F20" d="M441.47,129.625c21.387,0,33.936,12.158,33.936,34.717s-12.598,35.742-33.936,35.742h-30.127v-70.458
		H441.47z M432.046,183.629h6.494c10.352,0,15.771-6.299,15.771-19.287c0-11.865-5.859-18.262-15.771-18.262h-6.494V183.629z"/>
	<path fill="#231F20" d="M483.462,200.084v-70.458h20.704v70.458H483.462z"/>
	<path fill="#231F20" d="M531.9,200.084l-21.387-70.458h23.828l11.279,50.83h0.391l11.279-50.83h22.852l-21.387,70.458H531.9z"/>
	<path fill="#231F20" d="M636.197,200.084H586.49v-70.458h49.707v16.455h-29.004v11.377h27.197v14.844h-27.197v11.328h29.004
		V200.084z"/>
	<path fill="#231F20" d="M666.568,200.084h-20.703v-70.458h31.299c18.799,0,28.467,8.838,28.467,23.926
		c0,8.301-4.004,16.309-11.377,19.824l13.379,26.708h-23.145l-11.133-23.632h-6.787V200.084z M666.568,162.78h8.545
		c5.811,0,9.375-3.564,9.375-8.887c0-5.225-3.76-8.984-9.326-8.984h-8.594V162.78z"/>
	<path fill="#231F20" d="M731.607,179.333c0.586,4.004,5.469,6.641,11.035,6.641c6.201,0,10.01-2.49,10.01-5.908
		c0-3.271-2.588-4.688-10.156-6.055l-9.326-1.66c-12.939-2.246-19.971-9.668-19.971-20.703c0-14.258,12.207-23.242,29.004-23.242
		c18.75,0,29.248,8.594,29.346,22.266h-18.896c-0.146-4.395-4.492-6.982-10.059-6.982c-5.42,0-8.838,2.246-8.838,5.762
		c0,3.369,2.881,5.127,9.57,6.299l9.668,1.66c13.672,2.393,20.068,8.887,20.068,20.312c0,14.404-12.061,23.583-30.811,23.583
		c-18.896,0-30.176-7.91-30.225-21.972H731.607z"/>
	<path fill="#231F20" d="M780.875,200.084v-70.458h20.703v70.458H780.875z"/>
	<path fill="#231F20" d="M827.213,200.084v-54.003h-18.555v-16.455h57.812v16.455h-18.555v54.003H827.213z"/>
	<path fill="#231F20" d="M894.205,200.084V177.77l-24.072-48.145h22.119l12.354,28.564h0.391l12.354-28.564h21.631l-24.072,48.145
		v22.314H894.205z"/>
	<path fill="#231F20" d="M411.343,310.084v-70.459h20.703v70.459H411.343z"/>
	<path fill="#231F20" d="M441.812,310.084v-70.459h16.064l27.197,36.523h0.391v-36.523h19.532v70.459h-15.87l-27.393-37.109h-0.391
		v37.109H441.812z"/>
	<path fill="#231F20" d="M549.674,310.084V256.08h-18.555v-16.455h57.812v16.455h-18.555v54.004H549.674z"/>
	<path fill="#231F20" d="M645.719,310.084h-49.707v-70.459h49.707v16.455h-29.004v11.377h27.197v14.844h-27.197v11.328h29.004
		V310.084z"/>
	<path fill="#231F20" d="M653.678,274.83c0-23.242,13.428-36.426,34.961-36.426c18.604,0,32.666,12.109,32.715,29.59h-19.824
		c-0.488-8.008-5.713-13.33-12.891-13.33c-8.496,0-13.867,7.52-13.867,20.117c0,12.744,5.322,20.264,13.916,20.264
		c7.129,0,12.305-5.225,12.939-13.379h19.824c-0.098,17.578-13.818,29.639-32.812,29.639
		C667.057,311.305,653.678,298.072,653.678,274.83z"/>
	<path fill="#231F20" d="M774.771,310.084v-27.246h-24.805v27.246h-20.703v-70.459h20.703v26.758h24.805v-26.758h20.703v70.459
		H774.771z"/>
</g>
<g>
	<g>
		<path fill="#736357" d="M294.85,63.654c0,0,16.356,11.278,19.192,34.726c2.836,23.448,2.065,47.834,11.561,54.792
			c9.494,6.957,31.516,15.76,31.516,15.76s-20.814,21.607-20.208,28.153c0.606,6.545,2.496,33.122-3.465,49.158
			c-5.963,16.036-20.624,26.121-43.797,27.937c-23.173,1.814-41.611-5.786-41.611-5.786s-29.771,13.748-31.44,37.866
			c0,0-49.119,1.576-64.991-24.592c0,0,11.466-17.971,14.221-33.576c2.754-15.606,0-32.069,0-32.069s-43.052-2.694-40.248-31.422
			c2.804-28.728,33.543-47.699,62.864-4.637C188.444,179.964,276.407,155.873,294.85,63.654z"/>
	</g>
</g>
<g>
	<circle fill="#EC5D8C" cx="258.421" cy="210.794" r="16.059"/>
</g>
<g>
	<g>
		<circle fill="#231F20" cx="165.827" cy="197.085" r="8.614"/>
	</g>
</g>
<g>
	<path fill="#FAA95C" d="M151.606,152.59l46.81-133.29c0,0,40.187-13.713,68.226,20.393l-79.267,132.093"/>
</g>
<g>
	<g>
		<path fill="#231F20" d="M335.942,188.629c-3.374,0.391-5.792,3.442-5.4,6.814c3.525,30.414,0.25,49.602-10.31,60.381
			c-8.002,8.169-21.636,12.25-38.459,12.25c-16.945-0.002-37.129-4.146-58.03-12.428c-3.157-1.252-6.729,0.295-7.98,3.451
			c-1.25,3.156,0.296,6.729,3.451,7.98c22.343,8.853,43.818,13.255,62.325,13.254c20.352-0.001,37.113-5.325,47.478-15.904
			c13.543-13.826,17.781-35.537,13.74-70.4C342.365,190.655,339.319,188.23,335.942,188.629z"/>
	</g>
	<g>
		<path fill="#231F20" d="M364.417,165.326c-0.731-2.136-2.573-3.697-4.799-4.07c-32.609-5.464-36.853-19.421-36.579-33.688
			c0.743-38.915-14.834-59.935-15.497-60.81c-1.079-1.424-2.657-2.236-4.303-2.395c1.342-10.554-0.537-18.659-6.062-22.175
			c-11.872-7.554-21.185-7.757-26.268-6.967c-15.8-18.851-35.071-23.821-48.516-24.65c-14.603-0.897-25.506,2.754-25.962,2.911
			c-1.214,0.414-2.245,1.197-2.981,2.211c-5.004-2.982-10.847-4.701-17.096-4.701c-10.362,0-19.623,4.709-25.763,12.1
			c-5.117-2.418-10.834-3.778-16.87-3.778c-17.871,0-32.966,11.871-37.844,28.153c-5.361-1.795-11.09-2.782-17.053-2.782
			c-29.631,0-53.654,24.019-53.654,53.652c0,18.54,9.404,34.883,23.699,44.519c-20.812,6.141-36.006,25.384-36.006,48.188
			c0,27.751,22.495,50.245,50.246,50.245c4.14,0,8.158-0.51,12.006-1.455c-0.022,0.648-0.048,1.295-0.048,1.949
			c0,28.943,23.463,52.404,52.405,52.404c28.944,0,52.405-23.461,52.405-52.404c0-8.041-1.817-14.361-5.056-20.377
			c3.752-0.726,7.162-1.97,9.963-3.801c2.843-1.857,3.641-5.668,1.783-8.51s-5.666-3.639-8.511-1.782
			c-3.691,2.413-10.643,3.201-18.141,2.051c-8.332-1.276-15.993-4.685-21.015-9.352c-7.833-7.277-8.557-16.833-2.154-28.402
			c4.306-7.777,9.155-11.782,14.829-12.244c11.766-0.954,25.641,13.188,30,18.719c1.886,2.398,5.199,3.008,7.789,1.583
			c6.059,0.097,22.731-2.917,57.903-29.15c26.887-20.054,45.459-49.166,52.84-72.439c3.888,7.138,11.124,23.911,10.64,49.255
			c-0.438,22.903,11.082,36.989,36.056,43.729l-4.361,4.737c-2.3,2.499-2.139,6.388,0.358,8.688
			c1.182,1.087,2.675,1.624,4.162,1.624c1.659,0,3.314-0.667,4.526-1.984l11.64-12.645
			C364.653,169.823,365.148,167.459,364.417,165.326z M159.762,147.918l43.396-123.566c8.586-2.082,35.088-6.133,55.904,16.023
			l-73.978,123.281C179.329,157.934,170.171,150.44,159.762,147.918z"/>
	</g>
	<g>
		<path fill="#231F20" d="M285.069,137.85c-1.282-5.006-6.379-8.026-11.385-6.747c-5.008,1.28-8.028,6.377-6.749,11.383l7.005,27.4
			c1.28,5.008,6.379,8.03,11.385,6.748c5.008-1.278,8.028-6.377,6.748-11.383L285.069,137.85z"/>
	</g>
	<g>
		<path fill="#231F20" d="M286.97,219.199c10.561,16.188,26.047,17.775,31.711,17.775c1.23,0,1.999-0.075,2.15-0.092
			c3.117-0.336,5.37-3.134,5.034-6.25c-0.336-3.117-3.141-5.369-6.25-5.035c-0.141,0.018-14.045,1.342-23.14-12.6
			c-1.713-2.625-5.228-3.364-7.855-1.654C285.996,213.057,285.257,216.574,286.97,219.199z"/>
	</g>
	<g>
		<path fill="#231F20" d="M236.687,210.794c0,11.985,9.749,21.735,21.732,21.735c11.986,0,21.736-9.75,21.736-21.735
			c0-11.983-9.75-21.733-21.736-21.733C246.436,189.061,236.687,198.811,236.687,210.794z M268.805,210.794
			c0,5.727-4.659,10.386-10.386,10.386c-5.725,0-10.382-4.659-10.382-10.386c0-5.726,4.657-10.384,10.382-10.384
			C264.146,200.41,268.805,205.068,268.805,210.794z"/>
	</g>
	<g>
		<path fill="#231F20" d="M227.098,273.908c-0.786,0.225-4.916,1.57-9.072,6.181c-5.17,5.734-8.14,13.86-8.831,24.153
			c-0.228,3.389,2.335,6.319,5.722,6.547c0.14,0.009,0.28,0.014,0.418,0.014c3.207,0,5.909-2.488,6.127-5.736
			c1.094-16.31,8.846-19.268,9.176-19.386c-0.118,0.043-0.182,0.057-0.182,0.057L227.098,273.908z"/>
	</g>
</g>
<g>
	<g>
		<path fill="#231F20" d="M335.942,188.629c-3.374,0.391-5.792,3.442-5.4,6.814c3.525,30.414,0.25,49.602-10.31,60.381
			c-8.002,8.169-21.636,12.25-38.459,12.25c-16.945-0.002-37.129-4.146-58.03-12.428c-3.157-1.252-6.729,0.295-7.98,3.451
			c-1.25,3.156,0.296,6.729,3.451,7.98c22.343,8.853,43.818,13.255,62.325,13.254c20.352-0.001,37.113-5.325,47.478-15.904
			c13.543-13.826,17.781-35.537,13.74-70.4C342.365,190.655,339.319,188.23,335.942,188.629z"/>
	</g>
	<g>
		<path fill="#231F20" d="M198.416,19.3l-46.81,133.29l35.768,19.196l79.267-132.093C238.603,5.587,198.416,19.3,198.416,19.3z
			 M185.084,163.656c-5.755-5.722-14.913-13.216-25.322-15.738l43.396-123.566c8.586-2.082,35.088-6.133,55.904,16.023
			L185.084,163.656z"/>
	</g>
	<g>
		<path fill="#231F20" d="M285.069,137.85c-1.282-5.006-6.379-8.026-11.385-6.747c-5.008,1.28-8.028,6.377-6.749,11.383l7.005,27.4
			c1.28,5.008,6.379,8.03,11.385,6.748c5.008-1.278,8.028-6.377,6.748-11.383L285.069,137.85z"/>
	</g>
	<g>
		<path fill="#231F20" d="M286.97,219.199c10.561,16.188,26.047,17.775,31.711,17.775c1.23,0,1.999-0.075,2.15-0.092
			c3.117-0.336,5.37-3.134,5.034-6.25c-0.336-3.117-3.141-5.369-6.25-5.035c-0.141,0.018-14.045,1.342-23.14-12.6
			c-1.713-2.625-5.228-3.364-7.855-1.654C285.996,213.057,285.257,216.574,286.97,219.199z"/>
	</g>
	<g>
		<path fill="#231F20" d="M236.687,210.794c0,11.985,9.749,21.735,21.732,21.735c11.986,0,21.736-9.75,21.736-21.735
			c0-11.983-9.75-21.733-21.736-21.733C246.436,189.061,236.687,198.811,236.687,210.794z M268.805,210.794
			c0,5.727-4.659,10.386-10.386,10.386c-5.725,0-10.382-4.659-10.382-10.386c0-5.726,4.657-10.384,10.382-10.384
			C264.146,200.41,268.805,205.068,268.805,210.794z"/>
	</g>
</g>
<g>
	<path fill="#231F20" d="M233.509,277.295c-0.062-0.123-0.129-0.246-0.201-0.367c-1.31-2.215-3.792-3.303-6.191-2.949l-0.02-0.07
		c-0.118,0.033-0.319,0.097-0.576,0.188c-0.562,0.141-1.112,0.361-1.636,0.67c-0.076,0.045-0.145,0.093-0.22,0.138
		c-1.753,0.888-4.19,2.466-6.641,5.186c-5.17,5.734-8.14,13.86-8.831,24.153c-0.228,3.389,2.335,6.319,5.722,6.547
		c0.14,0.009,0.28,0.014,0.418,0.014c3.207,0,5.909-2.488,6.127-5.736c0.728-10.848,4.399-15.785,6.875-17.913
		c0.696-0.48,1.438-0.962,2.23-1.446c0.032-0.012,0.058-0.021,0.07-0.026c-0.024,0.009-0.036,0.013-0.057,0.019
		c0.192-0.117,0.367-0.233,0.564-0.35C233.947,283.692,234.953,280.158,233.509,277.295z"/>
</g>
</svg>
